<?xml version="1.0" standalone="no"?>
<!DOCTYPE svg PUBLIC "-//W3C//DTD SVG 20010904//EN"
 "http://www.w3.org/TR/2001/REC-SVG-20010904/DTD/svg10.dtd">
<svg version="1.0" xmlns="http://www.w3.org/2000/svg"
 width="3875.000000pt" height="3875.000000pt" viewBox="0 0 3875.000000 3875.000000"
 preserveAspectRatio="xMidYMid meet">
<metadata>
Created by potrace 1.14, written by Peter Selinger 2001-2017
</metadata>
<g transform="translate(0.000000,3875.000000) scale(0.100000,-0.100000)"
fill="#000000" stroke="none">
<path d="M14449 25536 c-2 -2 -34 -6 -70 -10 -219 -20 -446 -86 -654 -188 -82
-40 -276 -166 -330 -213 -127 -112 -165 -149 -239 -234 -46 -53 -109 -132
-141 -176 l-57 -80 -164 0 -164 0 -1 25 c-7 216 -108 376 -294 465 -89 43
-140 49 -430 48 -259 0 -303 -8 -407 -66 -149 -84 -241 -229 -255 -399 -5 -70
-8 -78 -27 -79 -83 -5 -215 -26 -311 -51 -536 -140 -850 -537 -974 -1233 -11
-60 -23 -135 -26 -165 -3 -30 -8 -71 -10 -90 -3 -19 -7 -64 -10 -100 -2 -36
-7 -90 -10 -120 -7 -88 -15 -232 -20 -410 -5 -147 -13 -342 -20 -455 -25 -419
-25 -895 1 -1030 2 -11 6 -38 9 -60 18 -141 68 -312 122 -417 39 -74 128 -178
182 -212 51 -33 148 -65 206 -69 l50 -4 18 -64 c39 -137 89 -286 128 -376 246
-579 662 -956 1194 -1082 213 -51 472 -49 690 5 614 153 1113 685 1270 1356
31 133 31 144 3 152 -28 7 -32 2 -48 -49 -20 -63 -114 -257 -166 -343 -157
-255 -389 -497 -621 -646 -73 -47 -241 -136 -256 -136 -5 0 -23 -6 -40 -14
-113 -50 -295 -86 -447 -88 -72 -1 -207 9 -219 17 -3 1 -22 6 -41 9 -89 14
-262 85 -405 166 -145 82 -301 217 -403 350 -219 285 -372 698 -419 1130 -10
97 -10 463 0 560 33 300 142 623 285 841 68 104 73 110 192 229 155 155 295
242 515 320 272 95 552 118 808 65 221 -46 455 -160 637 -313 67 -56 203 -193
239 -241 14 -20 32 -43 40 -51 28 -29 140 -206 190 -300 63 -121 129 -279 166
-402 27 -91 30 -96 54 -95 22 2 27 8 31 42 9 69 -2 323 -15 344 -2 4 -6 22 -9
41 -25 153 -109 355 -207 502 -216 323 -593 581 -1006 688 -283 73 -608 87
-853 35 -105 -22 -113 -24 -155 -34 -22 -6 -43 -11 -46 -11 -4 0 -3 20 2 43
29 156 31 387 5 487 -32 119 -115 260 -221 378 -52 56 -59 60 -81 37 -13 -12
-12 -20 10 -64 42 -83 60 -186 60 -351 0 -101 -9 -234 -20 -296 -2 -16 -9 -54
-14 -84 -5 -30 -12 -71 -15 -90 -3 -19 -15 -74 -26 -121 -16 -68 -25 -88 -42
-96 -12 -6 -58 -37 -102 -70 -412 -308 -671 -843 -722 -1493 -13 -167 -5 -533
13 -561 3 -5 -2 -9 -10 -9 -23 0 -83 57 -111 105 -24 40 -77 175 -69 175 2 0
-1 11 -6 25 -5 14 -12 46 -15 72 -4 27 -8 55 -10 63 -27 104 -27 769 0 1110 3
30 7 134 10 230 8 278 18 492 30 620 6 63 8 86 20 195 6 53 19 130 40 250 12
67 59 225 90 305 95 248 231 411 435 522 106 58 227 96 405 126 17 3 389 7
828 9 768 4 798 3 789 -14 -50 -94 -140 -310 -192 -461 -30 -90 -31 -94 -13
-108 25 -19 25 -19 66 25 105 113 208 259 349 491 258 427 415 583 766 759
236 119 418 176 661 206 64 9 361 9 417 1 110 -16 180 -26 186 -26 3 0 -25
-30 -64 -67 -324 -313 -348 -643 -75 -1053 45 -67 182 -247 198 -260 23 -18
119 -137 159 -195 112 -165 202 -401 244 -640 3 -16 8 -39 10 -50 2 -11 7 -51
11 -90 4 -38 9 -79 11 -90 4 -17 9 -115 17 -289 2 -34 6 -41 29 -47 25 -7 27
-5 43 60 9 36 19 77 22 91 2 14 8 44 14 68 5 23 12 59 15 78 3 20 7 44 9 53 3
17 13 94 20 166 6 55 7 294 1 325 -3 14 -8 48 -11 75 -9 78 -53 218 -95 299
-58 114 -124 199 -264 344 -151 155 -178 186 -228 259 -36 52 -71 132 -84 190
-16 71 -16 201 0 255 24 83 95 184 188 267 l26 23 1 -81 c1 -109 8 -192 27
-301 23 -127 74 -266 136 -368 21 -34 38 -65 38 -68 0 -2 39 -44 88 -92 179
-179 355 -267 808 -406 37 -11 43 -11 53 6 17 28 14 36 -31 79 -78 73 -166
130 -321 206 -137 69 -287 155 -287 167 0 3 19 3 43 1 74 -6 200 -16 267 -21
36 -2 88 -6 115 -9 28 -2 86 -7 130 -10 44 -3 105 -8 135 -10 30 -3 91 -7 135
-10 118 -8 182 -15 290 -31 84 -13 209 -50 280 -85 155 -74 230 -173 269 -357
15 -67 15 -368 2 -767 -3 -82 -8 -296 -11 -475 -3 -179 -7 -345 -9 -370 -2
-25 -7 -99 -11 -165 -3 -66 -8 -131 -10 -145 -2 -14 -6 -59 -10 -101 -3 -42
-7 -85 -9 -95 -2 -11 -7 -55 -11 -99 -4 -44 -8 -82 -10 -85 -1 -3 -6 -30 -9
-60 -4 -30 -8 -66 -11 -80 -2 -14 -11 -65 -20 -115 -17 -100 -71 -337 -105
-460 -42 -153 -115 -319 -175 -400 -50 -67 -169 -175 -180 -163 -2 2 -6 188
-9 413 -3 226 -8 430 -10 455 -2 25 -7 77 -10 115 -4 39 -9 88 -12 110 -2 22
-7 58 -9 80 -5 44 -15 117 -21 154 -2 13 -6 43 -9 65 -4 23 -8 48 -9 56 -2 8
-6 33 -10 55 -4 22 -11 60 -17 85 -5 25 -11 59 -14 75 -10 61 -17 95 -52 253
-4 18 -10 22 -27 18 -11 -3 -24 -6 -28 -6 -4 0 -4 -21 -1 -47 13 -101 5 -760
-12 -993 -2 -25 -6 -106 -10 -180 -4 -74 -9 -162 -11 -195 -2 -33 -6 -105 -9
-160 -3 -55 -7 -127 -10 -160 -2 -33 -7 -109 -10 -170 -4 -60 -9 -112 -11
-114 -7 -8 -33 -10 -179 -16 -77 -3 -176 -8 -220 -10 -44 -2 -154 -7 -245 -10
-91 -4 -203 -8 -250 -10 -47 -3 -148 -7 -225 -10 -77 -3 -180 -8 -230 -10 -49
-2 -155 -7 -235 -10 -80 -4 -180 -8 -222 -10 -43 -2 -78 -2 -78 0 0 1 39 36
88 76 129 108 292 274 387 394 22 27 45 55 50 61 6 6 16 20 23 30 6 11 35 52
62 92 28 40 50 75 50 79 0 3 6 14 14 22 24 27 142 271 174 361 35 97 77 239
86 290 3 19 8 49 11 65 20 120 27 191 27 316 2 202 -14 315 -74 527 -29 105
-36 123 -71 202 -11 25 -26 61 -34 80 -29 67 -127 226 -201 324 -119 158 -222
258 -447 434 -41 32 -229 140 -315 181 -231 109 -449 172 -743 215 -161 24
-580 25 -702 2 -11 -2 -42 -7 -70 -10 -249 -32 -645 -135 -845 -220 -48 -20
-116 -70 -136 -101 -42 -64 -29 -146 31 -193 33 -26 118 -59 176 -67 405 -59
862 -196 1169 -350 141 -71 142 -72 245 -139 228 -149 421 -346 538 -551 79
-137 158 -359 173 -480 2 -22 7 -46 9 -53 18 -50 25 -350 11 -502 -23 -263
-118 -633 -251 -975 -65 -167 -78 -278 -39 -332 11 -15 42 -39 70 -53 47 -24
57 -25 224 -25 153 1 360 7 595 20 39 2 138 6 220 10 287 11 381 15 485 20 58
3 161 7 230 10 69 3 172 7 230 10 58 3 168 7 245 10 140 6 226 12 274 20 14 2
46 7 71 10 68 10 217 62 290 102 210 114 363 320 465 628 54 162 125 451 150
605 3 19 10 58 15 85 8 45 18 113 25 171 11 83 25 209 30 259 4 33 8 78 10
100 5 41 14 169 20 285 10 160 16 380 21 695 3 187 7 372 9 410 10 170 13 577
4 645 -38 306 -171 490 -437 601 -95 39 -271 83 -394 99 -51 6 -106 13 -123
15 -16 2 -66 6 -110 10 -44 3 -102 8 -130 10 -52 4 -165 13 -275 21 -36 2 -87
6 -115 9 -27 3 -86 7 -130 10 -44 3 -100 7 -125 9 -74 7 -243 19 -278 20 -29
1 -34 5 -42 36 -21 84 -24 145 -25 480 -1 385 -2 392 -56 441 -25 22 -109 57
-158 65 -7 2 -34 7 -60 13 -25 6 -58 13 -74 15 -15 3 -53 10 -85 15 -31 6 -77
13 -102 16 -25 3 -61 8 -80 11 -40 6 -445 16 -451 10z m-2265 -670 c83 -24
146 -105 146 -188 l0 -43 -395 0 c-344 0 -395 2 -396 15 -10 97 46 183 137
215 56 19 443 20 508 1z m1461 -1570 c419 -56 774 -202 1058 -434 103 -84 249
-243 321 -351 184 -274 270 -549 270 -866 1 -156 -2 -197 -25 -320 -52 -290
-227 -636 -448 -890 -103 -117 -397 -392 -408 -381 -2 1 6 27 16 57 18 50 98
322 106 358 41 188 58 286 81 460 10 77 12 400 2 486 -5 50 -21 142 -34 205
-118 551 -463 968 -1048 1265 -78 40 -161 80 -186 89 -25 10 -58 24 -75 31
-33 15 -165 62 -265 95 -35 12 -138 41 -229 66 -90 24 -165 45 -168 47 -4 4
13 8 97 24 13 2 55 11 93 19 38 8 92 17 120 20 29 4 55 8 58 10 3 1 43 6 90
10 46 3 86 8 88 10 5 5 444 -4 486 -10z"/>
<path d="M9489 23938 c-3 -10 -9 -51 -14 -93 -25 -205 -111 -492 -216 -723
-16 -34 -29 -64 -29 -66 0 -7 -126 -238 -173 -316 -67 -113 -251 -388 -350
-525 -71 -97 -307 -397 -366 -465 -12 -14 -46 -52 -74 -85 -306 -352 -911
-960 -1205 -1210 -19 -16 -47 -41 -61 -55 -14 -14 -55 -50 -91 -80 -35 -30
-72 -62 -80 -70 -18 -17 -49 -43 -135 -115 -33 -27 -62 -52 -65 -55 -3 -3 -30
-25 -60 -50 -30 -25 -57 -47 -60 -50 -3 -3 -50 -41 -105 -85 -55 -44 -107 -86
-115 -92 -84 -69 -345 -268 -516 -393 -794 -582 -1584 -1064 -2358 -1438 l-68
-33 6 68 c4 37 9 86 11 108 2 22 7 67 10 100 7 70 12 122 19 185 3 25 8 68 11
95 3 28 10 84 15 125 5 41 12 98 15 125 9 75 44 331 55 400 5 33 12 80 15 105
8 61 22 143 49 305 4 20 95 467 101 495 9 38 66 318 71 345 2 17 11 66 19 110
8 44 17 100 21 125 3 25 7 56 9 70 2 14 6 54 10 90 4 36 8 76 10 90 12 88 40
378 50 525 4 50 8 110 10 135 10 115 19 415 19 613 0 179 -3 220 -15 228 -21
13 -37 -12 -137 -211 -140 -276 -247 -567 -351 -950 -27 -102 -52 -196 -55
-210 -3 -14 -7 -34 -10 -45 -44 -180 -85 -407 -101 -555 -3 -30 -8 -66 -10
-80 -2 -14 -7 -63 -10 -110 -4 -47 -8 -98 -10 -115 -2 -16 -7 -79 -10 -140 -4
-60 -8 -132 -10 -160 -2 -27 -6 -97 -10 -155 -3 -58 -8 -127 -10 -155 -2 -27
-7 -122 -10 -210 -4 -88 -8 -198 -10 -245 -2 -47 -6 -296 -10 -555 -4 -258 -8
-471 -9 -472 -1 -1 -96 27 -211 63 -456 141 -904 262 -1140 309 -11 3 -51 11
-90 19 -38 9 -82 18 -97 21 -16 3 -38 7 -50 10 -91 18 -300 50 -413 63 -78 9
-390 9 -435 0 -199 -41 -408 -163 -517 -303 -42 -55 -100 -168 -121 -240 -11
-39 -9 -215 4 -264 28 -111 103 -226 213 -329 148 -139 442 -274 766 -352 291
-69 478 -86 760 -67 344 22 774 122 1165 270 107 41 197 73 199 71 5 -4 6 -41
15 -329 4 -110 9 -254 11 -320 3 -66 7 -194 10 -285 3 -91 8 -221 10 -290 3
-69 8 -188 10 -265 3 -77 7 -187 10 -245 3 -58 7 -154 10 -215 16 -360 24
-410 57 -377 14 14 13 -37 23 1172 4 476 8 910 10 965 1 55 4 136 5 181 l3 81
81 35 c207 90 207 90 246 84 78 -12 1155 -370 1835 -609 455 -160 1144 -408
1311 -471 344 -130 1761 -673 1934 -741 291 -114 761 -299 875 -345 338 -134
1213 -490 1290 -524 17 -8 71 -31 120 -51 50 -20 108 -45 130 -55 22 -11 74
-33 115 -50 41 -17 94 -40 116 -50 23 -11 207 -93 410 -183 510 -227 546 -244
833 -389 159 -80 258 -125 264 -119 5 5 6 14 3 20 -10 15 -233 146 -416 244
-92 49 -748 377 -754 377 -2 0 -82 38 -178 84 -95 46 -315 148 -488 226 -173
79 -342 155 -375 170 -33 15 -98 44 -145 65 -47 21 -105 46 -128 57 -24 11
-213 94 -420 185 -208 91 -469 206 -582 255 -291 128 -621 271 -945 410 -154
66 -293 126 -310 133 -16 8 -101 44 -189 80 -216 91 -210 88 -216 90 -3 1 -23
9 -45 19 -43 19 -442 183 -690 284 -312 127 -1086 427 -1400 542 -77 28 -149
55 -160 60 -23 10 -78 30 -717 264 -174 63 -395 143 -490 177 -95 34 -176 65
-181 68 -4 4 16 19 45 34 59 30 115 61 293 162 484 274 1110 688 1455 962 345
274 596 478 711 578 25 22 72 63 104 90 32 28 63 55 69 60 6 6 31 28 56 49 59
51 206 184 295 266 96 89 575 568 660 661 125 134 169 184 225 249 30 35 62
72 70 80 79 85 488 596 550 687 8 12 52 73 96 135 345 480 614 990 747 1418
35 113 70 250 81 320 3 19 8 46 11 60 10 48 16 116 22 264 5 120 3 150 -8 157
-14 8 -28 12 -30 7z m-8369 -5842 c14 -2 52 -7 85 -11 32 -4 68 -9 80 -11 11
-2 79 -13 150 -24 159 -24 157 -24 335 -61 80 -17 152 -32 160 -34 60 -12 568
-146 690 -182 47 -14 110 -32 140 -40 30 -8 56 -16 58 -18 5 -5 -286 -114
-383 -143 -201 -61 -403 -110 -525 -127 -24 -4 -47 -8 -51 -10 -10 -7 -200
-19 -299 -19 -99 -1 -267 9 -310 18 -13 3 -42 8 -65 12 -37 5 -93 16 -154 28
-13 3 -38 10 -56 16 -18 6 -41 12 -51 14 -51 11 -207 72 -274 108 -97 51 -154
98 -186 154 -45 77 -31 136 53 215 74 71 150 107 243 116 30 3 57 8 60 10 5 6
258 -4 300 -11z"/>
<path d="M21448 23435 c-2 -2 -55 -6 -118 -9 -110 -7 -137 -9 -240 -20 -25 -3
-72 -8 -105 -11 -33 -3 -67 -8 -75 -10 -8 -2 -40 -7 -70 -10 -103 -12 -417
-75 -571 -114 -151 -39 -445 -132 -524 -167 -22 -10 -44 -19 -50 -20 -33 -7
-271 -121 -371 -178 -573 -326 -962 -724 -1145 -1171 -22 -54 -41 -105 -42
-114 -1 -9 -5 -20 -9 -26 -13 -22 -55 -219 -64 -305 -13 -109 -5 -413 10 -439
2 -3 7 -27 10 -53 25 -185 154 -478 292 -661 70 -94 212 -247 295 -320 36 -32
78 -70 93 -83 99 -92 357 -269 581 -399 130 -76 672 -349 800 -405 55 -24 123
-53 150 -65 118 -54 723 -298 1125 -455 429 -168 783 -312 953 -389 26 -11 68
-30 95 -42 62 -27 318 -156 357 -179 17 -10 46 -26 65 -36 71 -38 260 -157
260 -164 0 -3 -6 -7 -12 -8 -12 0 -49 -7 -153 -27 -16 -3 -37 -8 -45 -10 -8
-3 -33 -7 -55 -10 -22 -4 -56 -10 -75 -15 -19 -5 -47 -11 -63 -14 -15 -3 -35
-7 -45 -10 -9 -3 -28 -7 -42 -10 -190 -34 -823 -189 -1072 -261 -260 -76 -597
-194 -747 -261 -220 -100 -294 -144 -410 -244 -114 -98 -169 -205 -159 -308
25 -262 522 -573 1035 -647 21 -4 63 -10 93 -15 110 -19 220 -25 440 -25 192
0 392 10 410 20 3 2 30 6 60 10 88 11 246 43 370 76 113 29 191 56 323 108 26
10 178 86 224 112 113 63 232 157 349 273 130 131 208 256 263 424 39 116 43
137 47 277 2 100 -1 134 -20 206 -23 87 -81 222 -107 249 -36 38 -80 92 -77
95 4 5 300 67 421 89 12 2 78 16 147 30 69 14 136 28 150 30 363 71 539 104
590 112 19 3 49 8 65 11 17 3 89 15 160 27 115 19 130 24 130 41 0 22 -19 24
-115 12 -30 -4 -71 -10 -90 -12 -48 -6 -197 -28 -345 -50 -49 -8 -52 -8 -255
-40 -91 -14 -181 -28 -200 -31 -39 -6 -201 -32 -240 -40 -14 -2 -41 -7 -60
-10 -19 -3 -46 -7 -60 -10 -14 -2 -65 -11 -115 -19 -49 -9 -101 -18 -115 -20
-14 -3 -49 -9 -79 -15 -75 -14 -75 -14 -112 23 -161 158 -509 381 -879 563
-291 142 -576 267 -1105 481 -1249 506 -2040 921 -2475 1297 -140 121 -317
324 -386 442 -69 117 -131 301 -149 439 -20 155 5 365 62 520 41 112 177 360
223 405 3 3 23 28 44 55 22 28 88 97 146 155 398 394 1027 702 1770 864 63 13
132 27 152 30 21 3 57 10 80 15 24 6 64 12 90 15 26 3 78 10 115 15 38 5 95
12 128 16 33 3 80 8 105 10 249 26 891 26 1050 1 14 -3 54 -7 90 -10 62 -6 90
-10 155 -21 17 -3 46 -8 65 -11 236 -38 527 -132 748 -243 277 -138 552 -356
735 -581 71 -88 211 -308 222 -350 1 -3 19 -40 39 -83 50 -105 121 -321 143
-434 18 -91 19 -93 46 -93 l29 0 -6 78 c-16 197 -59 393 -116 537 -4 11 -18
47 -31 80 -32 85 -136 287 -194 375 -330 504 -852 847 -1570 1029 -66 17 -133
33 -150 36 -16 2 -41 7 -55 10 -49 10 -326 53 -385 60 -236 25 -280 27 -567
30 -153 1 -279 1 -280 0z m1945 -6030 c69 -71 124 -155 154 -233 23 -61 25
-76 20 -172 -7 -140 -40 -234 -133 -382 -46 -72 -194 -212 -294 -278 -125 -82
-326 -179 -476 -229 -66 -22 -132 -42 -145 -45 -13 -2 -55 -11 -94 -19 -99
-21 -173 -35 -225 -41 -68 -8 -160 -18 -205 -22 -61 -5 -407 -5 -435 0 -14 3
-52 7 -85 11 -100 10 -149 16 -165 20 -8 2 -31 7 -50 10 -150 26 -403 110
-485 161 -11 7 -40 23 -63 36 -60 32 -186 137 -208 173 -32 53 -14 104 64 178
204 190 758 410 1670 663 122 34 574 148 622 158 14 2 54 12 90 21 36 9 75 18
88 21 12 2 62 14 110 25 48 12 98 23 112 26 13 2 27 6 29 9 6 5 40 -25 104
-91z"/>
<path d="M12000 22199 c-262 -26 -470 -124 -661 -311 -159 -156 -261 -328
-325 -551 l-22 -78 25 -10 c13 -5 26 -9 27 -9 2 0 14 24 26 53 120 280 396
551 666 653 160 60 351 76 484 41 68 -18 176 -63 212 -88 14 -11 29 -19 32
-19 17 0 111 -74 171 -134 116 -117 192 -246 254 -432 60 -178 76 -295 75
-529 0 -195 -19 -322 -70 -473 -105 -314 -309 -531 -583 -621 -490 -161 -933
34 -1203 529 -33 60 -92 217 -117 309 -11 41 -22 75 -24 77 -9 10 -47 -11 -53
-29 -7 -21 -7 -194 0 -237 45 -285 200 -522 445 -682 126 -82 317 -163 432
-182 19 -3 45 -8 59 -12 58 -14 336 -13 410 1 282 55 475 174 640 396 128 172
209 379 261 664 15 80 19 412 7 500 -57 420 -205 722 -464 945 -140 121 -351
211 -529 226 -33 3 -71 6 -85 8 -14 1 -54 -1 -90 -5z"/>
<path d="M31170 22088 c-121 -46 -233 -168 -294 -320 -34 -85 -90 -329 -101
-443 -14 -138 -20 -455 -10 -590 14 -204 18 -259 30 -390 7 -75 17 -158 21
-179 2 -10 6 -44 10 -75 3 -31 8 -65 10 -76 2 -11 13 -74 24 -140 11 -66 22
-129 24 -140 2 -11 11 -56 20 -99 96 -462 264 -1005 451 -1463 61 -149 309
-658 325 -668 14 -9 12 -41 -2 -57 -7 -7 -31 -35 -53 -63 -80 -100 -270 -270
-392 -353 -155 -104 -335 -179 -478 -198 -79 -11 -227 -11 -265 -1 -19 5 -42
10 -50 11 -97 12 -197 82 -241 168 -24 47 -29 164 -9 222 26 79 84 161 165
238 71 66 90 79 189 136 136 78 299 131 451 146 28 2 58 8 68 11 19 8 23 40 6
51 -6 3 -77 8 -158 9 -228 4 -393 -30 -566 -117 -338 -169 -522 -487 -450
-773 22 -87 80 -197 133 -250 122 -124 335 -223 539 -251 97 -14 290 -8 383
11 14 3 38 8 53 10 75 14 235 73 352 130 207 100 415 247 573 403 l54 52 18
-22 c11 -13 19 -26 20 -30 0 -4 6 -13 13 -20 6 -7 39 -47 72 -88 129 -162 335
-370 366 -370 45 0 31 31 -53 118 -77 80 -150 164 -206 237 -12 17 -43 57 -68
90 -26 33 -59 79 -75 102 l-29 42 93 113 c117 142 149 192 230 353 64 127 85
182 146 375 29 93 95 366 106 445 4 22 8 54 11 70 2 17 7 41 9 55 5 26 8 54
22 205 8 92 10 560 2 693 l-4 74 -228 -4 c-126 -2 -233 -5 -238 -9 -5 -3 -11
-133 -14 -290 -2 -156 -7 -297 -9 -314 -3 -16 -8 -58 -11 -93 -3 -34 -8 -79
-11 -100 -12 -81 -36 -216 -39 -222 -2 -3 -6 -24 -10 -47 -9 -61 -62 -277 -87
-353 -47 -145 -205 -470 -229 -470 -10 0 -114 226 -177 385 -145 365 -306 898
-366 1217 -2 13 -16 80 -30 150 -14 71 -29 144 -32 164 -3 20 -8 46 -10 58 -2
11 -7 37 -9 56 -5 34 -13 83 -21 125 -1 11 -10 76 -19 145 -9 69 -18 136 -20
150 -2 14 -7 59 -10 100 -4 41 -9 82 -10 91 -19 99 -28 711 -13 889 23 269 90
506 174 618 32 41 78 43 152 6 224 -111 461 -538 620 -1119 17 -60 33 -121 36
-135 2 -14 12 -59 21 -100 20 -93 51 -260 59 -320 4 -25 9 -56 11 -70 2 -14 7
-52 11 -85 3 -33 7 -61 8 -62 1 -1 104 -4 230 -7 l228 -4 -6 36 c-3 21 -8 46
-10 57 -2 11 -7 42 -10 68 -8 51 -12 75 -21 117 -3 14 -7 36 -10 50 -3 14 -7
36 -10 50 -3 14 -7 35 -9 47 -3 11 -25 100 -50 197 -163 624 -431 1177 -689
1419 -69 65 -162 134 -217 162 -132 67 -312 90 -410 53z"/>
<path d="M25825 20284 c-142 -93 -313 -167 -605 -262 -148 -48 -485 -147 -532
-156 -13 -2 -75 -16 -138 -31 -114 -26 -282 -62 -330 -71 -14 -3 -68 -13 -120
-24 -52 -11 -106 -21 -120 -24 -14 -2 -36 -7 -50 -10 -14 -3 -36 -8 -50 -10
-14 -3 -72 -14 -130 -25 -236 -46 -534 -102 -670 -125 -173 -30 -541 -92 -590
-100 -19 -3 -46 -8 -60 -11 -25 -5 -60 -11 -114 -20 -16 -2 -32 -9 -35 -14 -4
-6 -12 -6 -21 -1 -14 9 -46 6 -80 -7 -15 -6 -26 -9 -46 -11 -18 -3 -158 -132
-166 -153 -18 -48 55 -181 150 -275 51 -50 85 -67 94 -45 2 4 42 11 89 15 47
4 95 8 106 10 11 3 44 7 74 10 30 4 70 9 89 11 19 2 58 7 85 10 28 3 61 8 75
10 14 2 52 7 85 10 33 3 74 8 90 10 96 12 126 16 180 20 33 3 94 10 135 15 41
5 104 12 140 15 36 3 76 7 90 10 14 2 63 7 110 10 47 3 92 8 100 10 8 2 51 6
95 10 44 4 94 8 110 10 17 2 66 7 110 10 44 4 87 8 95 10 8 1 56 6 105 10 112
8 174 13 250 20 129 12 153 14 225 20 41 3 91 8 110 10 19 2 80 7 135 10 55 3
111 8 125 10 14 2 66 7 115 10 50 4 106 8 125 10 19 2 78 7 130 10 52 3 110 8
128 10 l33 4 -6 -102 c-4 -56 -8 -112 -10 -124 -27 -174 -27 -968 0 -1238 23
-229 33 -287 86 -500 67 -269 122 -391 243 -543 89 -111 151 -164 251 -212
144 -69 257 -80 440 -45 59 12 181 57 250 93 96 49 225 135 225 148 0 32 -27
31 -99 -2 -168 -79 -336 -118 -480 -111 -100 5 -102 5 -166 26 -38 13 -118 62
-160 99 -94 81 -189 279 -230 480 -9 41 -17 78 -19 81 -2 3 -7 35 -11 71 -3
36 -8 79 -10 95 -22 161 -22 549 0 775 2 25 7 77 10 115 12 131 13 150 20 210
6 62 12 115 20 175 2 19 7 58 9 85 11 108 17 161 21 175 2 8 7 40 10 70 7 55
33 191 38 197 4 3 61 9 172 18 44 3 105 8 135 10 30 3 91 7 135 10 44 3 112 7
150 10 39 3 122 7 185 10 63 3 140 8 170 10 30 3 93 8 140 10 47 3 113 8 148
10 35 2 109 7 165 10 56 4 120 8 143 10 23 2 92 7 155 10 63 3 141 8 174 10
127 7 295 17 550 30 55 3 143 8 195 10 91 5 186 10 405 20 55 2 147 7 205 10
121 6 269 12 455 20 72 3 175 7 230 10 55 2 168 7 250 10 83 3 186 8 230 10
44 2 161 7 260 10 99 4 183 9 186 11 3 2 -2 43 -13 91 -10 48 -20 97 -22 108
-3 20 -10 20 -382 19 -343 -1 -956 -10 -1334 -19 -80 -2 -253 -6 -385 -10
-441 -11 -752 -20 -1390 -40 -99 -3 -241 -8 -315 -10 -193 -6 -428 -16 -480
-20 -25 -2 -121 -7 -215 -10 -93 -4 -172 -7 -175 -7 -21 -1 -30 4 -30 18 0 24
64 210 96 279 16 33 28 63 29 66 0 4 -51 61 -114 128 -62 66 -132 141 -155
166 l-41 45 -70 -46z m-215 -664 c0 -5 -6 -10 -14 -10 -8 0 -23 -3 -33 -6 -10
-3 -7 2 7 10 30 18 40 20 40 6z"/>
<path d="M31233 19733 c3 -10 11 -57 18 -105 l12 -87 90 4 c302 13 861 28
1527 40 272 5 1273 5 1475 0 335 -8 553 -19 790 -40 28 -2 79 -7 115 -10 36
-3 79 -8 97 -11 25 -5 34 -2 42 14 18 34 -10 45 -149 57 -36 4 -72 8 -80 10
-8 3 -49 7 -90 10 -41 4 -91 8 -110 10 -19 2 -69 7 -110 10 -41 3 -95 7 -120
10 -25 2 -88 7 -140 10 -52 3 -122 8 -155 10 -254 19 -840 42 -1510 60 -394
11 -513 13 -1118 20 -568 7 -589 6 -584 -12z"/>
<path d="M33008 18771 c-25 -10 -59 -27 -75 -39 -15 -11 -71 -45 -123 -75
-118 -70 -124 -75 -110 -92 11 -14 90 -41 145 -50 130 -22 167 -26 220 -27
145 0 368 46 389 81 6 9 -30 39 -64 55 -8 3 -46 27 -85 51 -93 59 -204 115
-230 115 -11 -1 -41 -9 -67 -19z"/>
<path d="M11696 18191 c-113 -67 -173 -147 -316 -427 -185 -359 -206 -398
-364 -666 -83 -141 -154 -254 -158 -250 -4 4 -10 34 -13 67 -12 132 -16 182
-20 215 -4 35 -11 116 -20 225 -3 33 -8 78 -11 100 -9 63 -43 69 -50 8 -8 -78
-20 -220 -29 -373 -3 -52 -8 -126 -11 -165 -2 -38 -7 -136 -11 -216 -7 -167 3
-203 62 -235 46 -25 109 -7 128 36 6 16 42 60 78 97 141 146 373 432 497 613
28 41 83 120 121 175 39 55 92 132 118 172 27 40 51 73 54 73 4 0 19 -51 34
-112 59 -241 151 -458 268 -635 146 -219 309 -351 522 -422 221 -73 403 -57
648 59 37 18 47 27 45 43 -3 18 -16 23 -108 38 -223 36 -359 97 -472 210 -75
75 -160 194 -211 294 -13 28 -55 131 -91 230 -96 259 -125 334 -146 385 -10
25 -36 86 -56 135 -65 154 -121 235 -211 298 -62 44 -108 59 -177 56 -39 -2
-70 -10 -100 -28z"/>
<path d="M14425 18213 c-52 -14 -145 -92 -204 -173 -27 -36 -108 -182 -181
-325 -107 -210 -227 -432 -305 -563 -126 -214 -187 -313 -191 -309 -7 7 -12
38 -18 123 -4 43 -8 90 -10 104 -3 14 -7 68 -11 120 -4 52 -8 109 -10 125 -2
17 -7 61 -10 100 -10 126 -49 123 -59 -5 -4 -41 -8 -95 -11 -120 -2 -25 -7
-88 -10 -140 -4 -52 -8 -120 -10 -150 -25 -381 -25 -423 -4 -470 33 -73 124
-90 169 -33 11 14 20 29 20 33 0 4 40 50 89 102 109 114 245 276 355 423 95
127 336 472 382 545 l31 50 11 -38 c14 -45 22 -74 27 -99 2 -10 15 -58 30
-107 123 -419 356 -746 630 -883 191 -96 386 -119 579 -68 73 19 199 71 227
94 27 21 16 51 -20 52 -99 3 -291 54 -396 106 -55 28 -133 89 -180 142 -16 19
-35 39 -41 45 -24 25 -95 136 -134 210 -22 44 -70 161 -106 260 -93 257 -207
539 -250 621 -47 86 -135 177 -206 210 -51 24 -128 31 -183 18z"/>
<path d="M9285 18158 c-223 -17 -404 -79 -665 -229 -214 -123 -420 -340 -505
-534 -31 -68 -55 -187 -55 -266 0 -149 80 -338 188 -444 49 -48 182 -135 257
-168 81 -35 232 -73 330 -84 144 -15 504 -7 535 12 3 2 21 6 40 9 19 3 44 7
55 9 58 12 101 21 110 23 6 2 20 5 31 8 79 17 363 123 426 158 13 7 25 13 28
13 20 5 82 40 180 104 151 99 252 200 305 305 38 75 39 79 21 92 -17 12 -24
10 -65 -20 -95 -69 -264 -127 -473 -161 -18 -3 -44 -8 -58 -10 -38 -8 -176
-25 -250 -31 -36 -3 -85 -7 -110 -10 -85 -9 -505 -13 -565 -4 -33 4 -87 10
-120 13 -33 3 -70 10 -83 14 -21 8 -17 11 35 32 103 42 355 170 459 234 186
114 256 175 364 316 79 105 102 159 101 238 -1 116 -25 184 -88 254 -89 99
-235 142 -428 127z m233 -305 c88 -74 32 -212 -168 -414 -47 -47 -103 -99
-125 -115 -22 -16 -42 -32 -45 -35 -24 -30 -452 -299 -476 -299 -7 0 -38 10
-69 22 -66 25 -121 83 -131 137 -33 173 235 471 570 635 148 73 217 93 321 95
85 2 92 0 123 -26z"/>
<path d="M37717 18124 c-1 -1 -32 -4 -70 -8 -37 -3 -109 -20 -160 -36 -312
-100 -524 -368 -529 -667 -2 -131 7 -185 47 -268 62 -129 176 -220 370 -295
60 -24 206 -56 290 -65 33 -3 74 -8 90 -10 17 -2 66 -7 110 -10 44 -4 91 -8
105 -10 41 -6 102 -14 163 -20 76 -8 108 -20 101 -39 -13 -33 -123 -89 -219
-111 -16 -4 -39 -9 -50 -11 -92 -21 -246 -5 -301 31 -30 19 -54 14 -54 -12 0
-20 74 -73 136 -97 108 -43 269 -53 413 -26 192 35 295 132 295 277 0 39 -37
112 -73 147 -50 48 -186 94 -441 151 -158 34 -376 100 -385 116 -4 5 -13 9
-22 9 -22 0 -141 87 -147 108 -17 55 3 130 52 186 51 58 192 121 337 150 144
29 158 30 345 30 278 1 378 -29 493 -146 40 -41 74 -67 82 -64 37 14 30 168
-10 249 -41 81 -113 169 -179 219 -109 82 -316 173 -441 193 -22 3 -67 10
-100 16 -49 8 -241 18 -248 13z"/>
<path d="M35638 17955 c-2 -2 -21 -5 -43 -8 -60 -8 -90 -22 -133 -62 -54 -48
-73 -92 -73 -167 0 -109 64 -235 164 -323 73 -64 190 -116 292 -130 27 -3 52
-8 56 -10 9 -6 178 -7 215 -1 29 4 31 3 43 -44 7 -27 10 -59 6 -70 -13 -41
-177 -124 -285 -143 -76 -14 -185 -29 -260 -36 -90 -8 -424 -7 -500 3 -25 3
-76 8 -115 11 -115 10 -183 21 -247 40 -182 53 -256 133 -245 262 18 199 207
387 477 474 104 34 114 52 38 73 -209 59 -412 25 -611 -102 -84 -53 -150 -118
-210 -209 -53 -79 -78 -143 -103 -258 -11 -50 -5 -176 11 -230 29 -101 92
-206 177 -296 127 -133 359 -230 663 -274 49 -7 285 -8 340 -1 22 3 67 7 99
11 209 21 488 81 651 142 272 100 453 276 483 468 12 75 3 167 -22 227 -15 36
-15 37 7 44 77 24 317 145 328 167 19 34 -22 31 -150 -11 -186 -60 -245 -75
-249 -64 -2 6 -25 39 -51 74 -156 204 -442 385 -683 432 -37 8 -68 12 -70 11z
m108 -315 c69 -34 211 -138 284 -208 l25 -24 -60 7 c-79 9 -176 46 -239 92
-59 42 -85 72 -108 124 -28 62 -10 64 98 9z"/>
<path d="M28654 17921 c-62 -18 -120 -107 -114 -176 4 -44 3 -63 -4 -125 -15
-140 -32 -217 -82 -359 -93 -269 -221 -404 -427 -450 -102 -23 -213 -29 -244
-12 -57 30 -106 125 -128 246 -20 116 -35 207 -39 248 -8 65 -23 368 -25 474
-1 41 -5 55 -20 63 -17 9 -25 1 -65 -63 -200 -321 -296 -812 -207 -1068 48
-141 118 -241 226 -323 71 -54 264 -110 380 -109 197 1 392 63 540 173 104 77
228 239 283 370 10 22 19 40 22 40 3 -1 23 -31 45 -68 22 -37 75 -102 118
-145 126 -125 282 -189 457 -190 180 0 351 52 538 165 45 27 82 53 82 58 0 21
-26 20 -98 -5 -275 -97 -509 -107 -662 -30 -51 26 -138 105 -177 161 -60 87
-114 235 -138 379 -19 115 -30 245 -24 285 6 42 4 174 -5 280 -4 50 -29 124
-48 143 -31 31 -136 52 -184 38z"/>
<path d="M33090 17817 c-143 -149 -257 -415 -258 -601 0 -37 4 -82 9 -98 5
-17 11 -50 15 -72 6 -46 92 -266 131 -337 13 -26 46 -68 71 -94 106 -108 216
-155 377 -161 145 -5 288 33 465 123 103 53 118 66 101 86 -9 11 -28 14 -74
11 -229 -16 -373 -1 -478 52 -111 55 -142 152 -112 350 25 168 11 314 -48 497
-36 109 -121 258 -155 271 -8 3 -28 -9 -44 -27z"/>
<path d="M16173 17807 c-5 -7 -10 -39 -11 -72 -2 -58 -17 -194 -27 -245 -22
-113 -65 -379 -71 -440 -23 -234 12 -387 112 -494 98 -104 290 -153 464 -119
36 7 80 15 98 19 95 16 309 99 438 169 144 79 331 189 389 230 33 23 64 43 70
44 5 0 9 -14 8 -32 -2 -95 -15 -490 -18 -542 -10 -181 -17 -305 -20 -350 -9
-114 -17 -212 -20 -245 -2 -19 -6 -64 -10 -100 -3 -36 -8 -76 -10 -90 -2 -14
-6 -52 -10 -85 -3 -33 -8 -69 -10 -80 -2 -11 -4 -25 -4 -31 -1 -5 -13 -9 -28
-8 -16 1 -82 5 -149 8 -66 4 -145 9 -175 11 -128 9 -241 16 -339 20 -58 3
-132 7 -165 10 -220 17 -757 38 -980 38 -258 0 -372 -12 -453 -49 -118 -55
-177 -197 -123 -302 21 -41 83 -102 104 -102 45 0 626 -334 730 -420 11 -9
132 -102 182 -140 57 -43 229 -227 295 -315 41 -55 78 -102 82 -105 18 -14
139 -263 158 -325 11 -38 32 -104 46 -145 14 -41 27 -86 30 -100 13 -63 75
-134 148 -170 43 -20 57 -22 133 -17 95 7 142 26 248 102 164 118 308 308 414
548 90 201 188 534 231 785 22 124 24 141 36 252 6 60 18 85 35 74 17 -10
1105 -19 2359 -18 1180 0 2013 5 2755 19 602 11 919 17 1065 20 91 2 291 7
445 10 615 14 692 16 1230 31 105 3 262 7 350 9 191 5 540 14 720 20 72 2 225
7 340 10 116 3 273 8 350 10 138 5 314 10 635 20 91 2 237 7 325 10 88 3 232
8 320 10 191 6 424 13 630 20 148 5 314 10 655 20 96 3 238 7 315 10 77 2 221
7 320 10 99 3 245 8 325 10 168 6 424 13 695 20 105 3 258 7 340 10 83 2 236
7 340 10 105 3 269 7 365 10 96 3 263 7 370 10 107 2 285 7 395 10 517 14
1019 25 1890 40 626 12 741 13 945 14 107 1 190 5 183 9 -19 12 -2446 4 -3743
-13 -603 -8 -1237 -16 -1490 -20 -270 -4 -620 -10 -1275 -20 -181 -3 -454 -7
-605 -10 -151 -3 -435 -7 -630 -10 -195 -3 -479 -7 -630 -10 -993 -16 -2240
-32 -3190 -41 -499 -4 -3143 -4 -3545 0 -488 6 -1164 16 -1350 21 -93 2 -291
7 -440 10 -370 9 -831 21 -1075 30 -344 12 -502 18 -560 20 -36 2 -75 4 -87 4
-24 1 -24 -7 -8 256 23 392 23 1147 0 1470 -6 87 -17 235 -20 270 -20 229 -21
232 -46 264 -58 73 -156 92 -237 45 -54 -32 -81 -86 -82 -164 0 -78 -35 -124
-210 -282 -354 -317 -843 -551 -1055 -505 -129 28 -178 153 -169 437 10 351
11 587 2 647 -9 60 -27 84 -45 60z m712 -2802 c193 -4 403 -8 468 -10 65 -1
121 -5 124 -9 4 -4 -1 -48 -11 -99 -10 -50 -20 -105 -23 -121 -9 -57 -84 -351
-102 -406 -53 -152 -144 -350 -189 -408 l-19 -24 -42 88 c-66 138 -186 315
-299 443 -176 198 -375 363 -604 501 -43 26 -76 49 -73 51 6 6 339 4 770 -6z"/>
<path d="M36680 15350 c0 -5 5 -10 11 -10 5 0 7 5 4 10 -3 6 -8 10 -11 10 -2
0 -4 -4 -4 -10z"/>
<path d="M36720 15350 c-12 -8 -10 -10 8 -10 13 0 20 4 17 10 -7 12 -6 12 -25
0z"/>
<path d="M36840 15350 c-13 -8 -12 -10 3 -10 9 0 17 5 17 10 0 12 -1 12 -20 0z"/>
<path d="M36930 15350 c0 -5 5 -10 11 -10 5 0 7 5 4 10 -3 6 -8 10 -11 10 -2
0 -4 -4 -4 -10z"/>
<path d="M36788 15343 c6 -2 18 -2 25 0 6 3 1 5 -13 5 -14 0 -19 -2 -12 -5z"/>
</g>
</svg>
